<mxfile host="app.diagrams.net" modified="2020-08-12T15:27:12.344Z" agent="5.0 (Macintosh; Intel Mac OS X 10_15_4) AppleWebKit/537.36 (KHTML, like Gecko) Chrome/84.0.4147.89 Safari/537.36" etag="8JsNxAHoDizhQPw99GK1" version="13.6.2" type="github">
  <diagram id="Aj_8mXfaJ7Jbo9p3oEcJ" name="My Answer">
    <mxGraphModel dx="697" dy="520" grid="1" gridSize="10" guides="1" tooltips="1" connect="1" arrows="1" fold="1" page="1" pageScale="1" pageWidth="1654" pageHeight="1169" math="0" shadow="0">
      <root>
        <mxCell id="0" />
        <mxCell id="1" parent="0" />
        <mxCell id="OLWJGFnzhEqsU-Yj_Nwl-5" value="Pool" style="swimlane;html=1;horizontal=0;startSize=20;" vertex="1" parent="1">
          <mxGeometry x="30" y="20" width="710" height="240" as="geometry" />
        </mxCell>
        <mxCell id="OLWJGFnzhEqsU-Yj_Nwl-6" value="Task" style="shape=ext;rounded=1;html=1;whiteSpace=wrap;" vertex="1" parent="OLWJGFnzhEqsU-Yj_Nwl-5">
          <mxGeometry x="210" y="70" width="120" height="80" as="geometry" />
        </mxCell>
        <mxCell id="OLWJGFnzhEqsU-Yj_Nwl-7" value="" style="shape=mxgraph.bpmn.shape;html=1;verticalLabelPosition=bottom;labelBackgroundColor=#ffffff;verticalAlign=top;align=center;perimeter=ellipsePerimeter;outlineConnect=0;outline=standard;symbol=general;" vertex="1" parent="OLWJGFnzhEqsU-Yj_Nwl-5">
          <mxGeometry x="50" y="85" width="50" height="50" as="geometry" />
        </mxCell>
      </root>
    </mxGraphModel>
  </diagram>
</mxfile>
